<?xml version="1.0" encoding="UTF-8"?>
<!DOCTYPE svg PUBLIC "-//W3C//DTD SVG 1.1//EN" "http://www.w3.org/Graphics/SVG/1.1/DTD/svg11.dtd">
<!-- Creator: CorelDRAW 2018 (64 Bit) -->
<svg xmlns="http://www.w3.org/2000/svg" xml:space="preserve" width="127mm" height="127mm" version="1.1" style="shape-rendering:geometricPrecision; text-rendering:geometricPrecision; image-rendering:optimizeQuality; fill-rule:evenodd; clip-rule:evenodd"
viewBox="0 0 12700 12700"
 xmlns:xlink="http://www.w3.org/1999/xlink">
 <defs>
  <style type="text/css">
   <![CDATA[
    .fil3 {fill:white}
    .fil2 {fill:black;fill-rule:nonzero}
    .fil1 {fill:#BF1E2E;fill-rule:nonzero}
    .fil0 {fill:white;fill-rule:nonzero}
   ]]>
  </style>
 </defs>
 <g id="Camada_x0020_1">
  <metadata id="CorelCorpID_0Corel-Layer"/>
  <g id="_1899203643296">
   <polygon class="fil0" points="9983.67,7471.19 9984.79,7370.17 4540.49,7894.79 4540.49,7901.75 "/>
   <path class="fil0" d="M5599.35 8870.4l30.61 13.41c91.66,40.27 226.1,-221.41 124.27,-266.2l-36.7 -16.11 -118.18 268.9zm-14.7 33.47l-118.57 269.87 34.63 15.27c120.18,52.74 238.81,-217.17 127.74,-265.92l-43.8 -19.22zm-78.3 -430.21l323.93 142.28c209.9,92.16 123.02,350.58 -38.34,349.92 170.01,111 10.26,394.24 -215.84,294.94l-348.41 -153.02 6.65 -15.2c0,0 53.19,17.29 88.42,-62.86l190.38 -433.22c35.23,-80.15 -13.52,-107.61 -13.52,-107.61l6.73 -15.23z"/>
   <path class="fil0" d="M6349.37 9203.02l-15.54 -288.32c-1.86,-16.39 -5.33,-30.89 -11.21,-44.79l-156.24 290.08 182.99 43.03zm-422.79 198.89l149.66 -169.76 222.64 -401.95c-28.58,-34.07 -62.3,-51.09 -62.3,-51.09l3.85 -16.21 274.77 65.79 51.41 723.72 -254.46 -59.84 -0.53 -17.23c0,0 53.29,-7.91 48.53,-94.47l-7.91 -131.67 -207.93 -48.87 -24.41 45.52 50.36 213.35 -243.68 -57.29z"/>
   <path class="fil0" d="M7024.05 9270.66l41.15 1.86c142.3,6.3 189.75,-334.42 36.31,-341.28l-62.27 -2.73 -15.19 342.15zm-227.95 -385.19l362.45 16.14c272.36,12.12 281.64,379.8 -1.44,408.27l140.39 49.51 102.63 246.44 -293.44 -13.05 0.74 -16.57c0,0 70.56,-7.98 31.23,-101.83l-69.51 -165.07 -46.71 -2.09 -7.77 174.93 -55.82 104.08 -193.43 -8.62 0.73 -16.63c0,0 55.83,-3.05 59.71,-90.55l20.97 -472.83c3.89,-87.51 -51.48,-95.49 -51.48,-95.49l0.75 -16.64z"/>
   <polygon class="fil0" points="7849.99,8892.59 7718.88,8911.25 7557.74,9216.36 7513.2,8903.55 8085.93,8820.99 7798.86,9528.07 7965.19,9504.44 8119.82,9248.4 8157.36,9511.82 7566.84,9595.8 "/>
   <path class="fil0" d="M8200.04 8784.57l286.45 -86.95 4.79 15.93c0,0 -47.34,20.17 -28.74,96.76l142.61 469.91c27.14,74.03 77.74,64.47 77.74,64.47l4.87 15.9 -286.51 86.98 -4.79 -15.94c0,0 47.34,-20.2 27.69,-96.47l-142.65 -469.91c-26.02,-74.35 -76.62,-64.79 -76.62,-64.79l-4.84 -15.89z"/>
   <path class="fil0" d="M8609.06 8662.86l210.28 -101.96 491.78 335.62 -225.44 -464.84 90.16 -43.7 7.22 14.95c-36.11,22.49 -24.45,77.14 -9.42,108.1l211.35 435.85 94.16 64.01 -187.23 90.83 -492.08 -315.77 217.7 448.84 -90.1 43.69 -7.25 -14.95c36.06,-22.41 24.4,-77.17 9.41,-108.06l-202.21 -416.94 -118.33 -75.67z"/>
   <path class="fil0" d="M9264.73 8319.97l245.4 -171.36 9.53 13.62c0,0 -38.77,33.9 2.62,100.95l281.29 402.62c48.67,61.98 93.81,37.19 93.81,37.19l9.56 13.65 -245.43 171.38 -9.46 -13.62c0,0 38.76,-33.87 -3.6,-100.29l-281.22 -402.62c-47.84,-62.61 -92.97,-37.86 -92.97,-37.86l-9.53 -13.66z"/>
   <path class="fil0" d="M6017.71 3732.93l-46.55 -86.66 -54.65 29.34 46.32 86.77 54.88 -29.45zm-123.02 -97.87l54.94 -29.49 -38.2 -71.11 -54.9 29.41 38.16 71.19zm40.66 194.3l-0.18 -0.34c0.84,-1.02 1.47,-2.28 1.72,-3.78 0.28,-1.27 0.28,-2.87 -0.04,-4.8 -0.24,-1.92 -1.12,-4.17 -2.48,-6.76l-136.53 -254.29c-1.44,-2.66 -2.84,-4.62 -4.27,-5.88 -1.41,-1.3 -2.74,-2.1 -3.89,-2.52 -1.4,-0.5 -2.77,-0.7 -4.06,-0.53l-0.32 -0.59 120.88 -64.89 41.21 11.7 49.02 91.25 -6.79 21.05 21.53 6.12 57.92 108.69 -13.02 40.8 -120.7 64.77z"/>
   <path class="fil0" d="M6274.38 3554.65l37.08 -14.89 -76.3 -135.78 39.22 150.67zm-24.45 101.55l-73.18 -281.67c-0.81,-2.95 -1.71,-5.18 -2.8,-6.62 -1.08,-1.51 -2.13,-2.52 -3.12,-3.12 -1.19,-0.77 -2.41,-1.12 -3.67,-1.12l-0.21 -0.63 89.12 -35.86 0.21 0.64c-0.88,0.83 -1.51,1.95 -1.82,3.32 -0.32,1.05 -0.36,2.55 -0.08,4.38 0.22,1.81 1.09,4.02 2.56,6.76l142.45 253.69c1.44,2.63 2.98,4.59 4.55,5.95 1.57,1.33 2.94,2.27 4.16,2.84 1.51,0.69 2.95,1.01 4.31,0.94l0.18 0.42 -58.1 23.43 -0.14 -0.45c0.88,-0.85 1.44,-1.93 1.72,-3.41 0.28,-1.15 0.28,-2.66 -0.07,-4.51 -0.28,-1.82 -1.15,-4.06 -2.59,-6.65l-19.26 -34.32 -48.11 19.4 9.87 38.06c0.77,2.91 1.72,5.12 2.81,6.62 1.15,1.54 2.13,2.6 3.05,3.29 1.15,0.88 2.37,1.26 3.63,1.26l0.15 0.39 -58.14 23.42 -0.14 -0.41c1.05,-0.88 1.86,-2.11 2.45,-3.72 0.57,-1.3 0.92,-2.9 1.1,-4.97 0.16,-2.03 -0.11,-4.45 -0.89,-7.35z"/>
   <path class="fil0" d="M6559.77 3273.48l29.1 104.87 60.17 -16.7 -29.15 -104.87 -60.12 16.7zm-66.11 -28.71l-0.2 -0.67 132.22 -36.7 37.64 20.45 37.82 136.22 -19.12 32.56 51.26 95.28c1.48,2.7 2.94,4.77 4.48,6.24 1.51,1.42 2.91,2.48 4.2,3.14 1.4,0.85 2.84,1.33 4.21,1.44l0.35 0.39 -60.37 16.73 -0.14 -0.41c0.94,-0.78 1.58,-1.76 1.99,-3.16 0.32,-1.08 0.39,-2.55 0.07,-4.41 -0.24,-1.78 -1.08,-4.03 -2.55,-6.73l-49.55 -92.05 -34.77 9.67 27.28 98.24c0.8,2.88 1.79,5.05 2.91,6.63 1.15,1.57 2.23,2.7 3.35,3.43 1.19,0.91 2.42,1.47 3.75,1.58l0.1 0.45 -60.26 16.7 -0.14 -0.46c1.13,-0.73 1.89,-1.85 2.49,-3.25 0.49,-1.19 0.88,-2.69 1.02,-4.66 0.14,-1.88 -0.21,-4.31 -0.96,-7.13l-77.2 -278.11c-0.84,-2.94 -1.79,-5.18 -2.88,-6.69 -1.15,-1.54 -2.2,-2.66 -3.25,-3.32 -1.19,-0.85 -2.46,-1.31 -3.75,-1.4z"/>
   <path class="fil0" d="M7037.46 3399.64l-15.31 -97.14 -61.31 9.67 15.1 97.17 61.52 -9.7zm-83.84 -132.96l61.53 -9.73 -12.6 -79.77 -61.53 9.74 12.6 79.76zm-25.7 196.9l-0.06 -0.48c1.15,-0.6 2.13,-1.62 2.9,-2.98 0.7,-1.09 1.15,-2.59 1.54,-4.49 0.35,-1.88 0.32,-4.31 -0.18,-7.21l-45.02 -285.07c-0.5,-3.01 -1.16,-5.32 -2.11,-7 -0.91,-1.65 -1.82,-2.87 -2.86,-3.65 -1.13,-0.97 -2.32,-1.57 -3.62,-1.85l-0.1 -0.67 135.51 -21.39 35.05 24.62 16.18 102.31 -13.34 17.65 18.28 12.93 18.87 121.64 -25.76 34.24 -135.28 21.4z"/>
   <path class="fil0" d="M7279.5 3417.93c1.22,-0.48 2.24,-1.4 3.15,-2.62 0.77,-1.02 1.44,-2.49 1.99,-4.27 0.6,-1.86 0.81,-4.27 0.67,-7.25l-12.47 -288.29c-0.14,-3.09 -0.59,-5.47 -1.33,-7.22 -0.69,-1.74 -1.5,-3.04 -2.38,-3.92 -0.97,-1.08 -2.07,-1.85 -3.33,-2.24l-0.03 -0.7 167.73 -7.25 2.28 52.39 -0.46 0c-0.49,-1.19 -1.4,-2.21 -2.66,-3.09 -1.01,-0.76 -2.45,-1.47 -4.27,-2.02 -1.83,-0.57 -4.24,-0.78 -7.32,-0.71l-97.31 4.28 3.08 71.36 78.57 -3.43c3.09,-0.15 5.47,-0.59 7.26,-1.37 1.75,-0.73 3.08,-1.58 4.06,-2.45 1.15,-0.91 1.95,-2.03 2.34,-3.25l0.5 -0.04 2.52 58.87 -0.43 0.03c-0.52,-1.22 -1.4,-2.21 -2.69,-3.08 -0.98,-0.77 -2.45,-1.48 -4.28,-2.04 -1.74,-0.59 -4.24,-0.77 -7.27,-0.66l-78.62 3.43 4.69 107.54 97.35 -4.17c3.05,-0.18 5.46,-0.59 7.25,-1.37 1.72,-0.76 3.08,-1.54 4.06,-2.48 1.19,-0.91 1.96,-1.99 2.38,-3.25l0.46 0 2.27 52.44 -167.73 7.29 -0.03 -0.46z"/>
   <path class="fil0" d="M7703.94 3318.52l39.88 2.75 -9.42 -155.47 -30.46 152.72zm-66.29 80.7l57 -285.38c0.64,-3.02 0.74,-5.43 0.43,-7.21 -0.36,-1.79 -0.81,-3.15 -1.44,-4.1 -0.77,-1.26 -1.71,-2.1 -2.84,-2.62l0.07 -0.67 95.85 6.58 -0.04 0.67c-1.15,0.38 -2.21,1.12 -3.15,2.17 -0.73,0.83 -1.4,2.16 -1.96,3.95 -0.6,1.72 -0.81,4.14 -0.63,7.19l17.47 290.45c0.18,3.02 0.67,5.4 1.51,7.29 0.83,1.89 1.68,3.36 2.52,4.41 1.05,1.29 2.24,2.21 3.46,2.73l0 0.46 -62.5 -4.31 0 -0.45c1.19,-0.35 2.2,-1.16 3.05,-2.32 0.73,-0.87 1.4,-2.27 1.95,-4.06 0.53,-1.78 0.71,-4.17 0.53,-7.14l-2.31 -39.25 -51.79 -3.57 -7.67 38.58c-0.59,2.95 -0.73,5.29 -0.39,7.14 0.36,1.86 0.75,3.33 1.3,4.31 0.67,1.26 1.58,2.18 2.7,2.66l-0.04 0.5 -62.46 -4.31 0.03 -0.43c1.3,-0.34 2.59,-1.12 3.78,-2.27 1.08,-0.91 2.14,-2.24 3.16,-3.99 1.04,-1.72 1.88,-4.1 2.41,-7.01z"/>
   <path class="fil0" d="M8082.89 3190.1l-19.58 107.02 61.4 11.24 19.57 -107.05 -61.39 -11.21zm-46.92 -54.73l0.11 -0.66 134.98 24.68 24.9 34.81 -25.39 139.09 -31.4 20.94 4.54 108.09c0.18,3.09 0.6,5.57 1.3,7.57 0.74,1.92 1.54,3.54 2.42,4.69 0.91,1.44 1.92,2.45 3.18,3.12l0.11 0.48 -61.6 -11.23 0.07 -0.46c1.16,-0.25 2.18,-0.94 3.16,-1.99 0.77,-0.85 1.47,-2.14 2.03,-3.89 0.52,-1.78 0.74,-4.13 0.63,-7.14l-4.49 -104.53 -35.46 -6.51 -18.32 100.32c-0.56,2.95 -0.63,5.36 -0.28,7.25 0.35,1.93 0.81,3.47 1.5,4.55 0.67,1.4 1.58,2.42 2.66,3.05l-0.07 0.45 -61.48 -11.24 0.07 -0.42c1.29,-0.25 2.48,-0.84 3.64,-1.92 0.98,-0.77 1.93,-2.03 2.94,-3.72 0.95,-1.67 1.68,-3.95 2.25,-6.86l51.89 -283.91c0.49,-2.98 0.62,-5.4 0.32,-7.28 -0.32,-1.86 -0.82,-3.33 -1.48,-4.38 -0.7,-1.3 -1.64,-2.24 -2.73,-2.95z"/>
   <path class="fil0" d="M8333.62 3522.92c1.3,-0.11 2.52,-0.63 3.74,-1.54 1.09,-0.74 2.21,-1.85 3.3,-3.47 1.12,-1.54 2.1,-3.74 2.9,-6.58l78.86 -277.65c0.88,-2.94 1.19,-5.32 1.05,-7.21 -0.14,-1.89 -0.49,-3.4 -1.05,-4.52 -0.56,-1.33 -1.4,-2.38 -2.42,-3.15l0.18 -0.64 60.12 17.07 -0.17 0.66c-1.3,0.1 -2.56,0.6 -3.72,1.43 -1.08,0.64 -2.16,1.72 -3.32,3.26 -1.15,1.51 -2.14,3.71 -2.98,6.62l-78.85 277.68c-0.81,2.83 -1.12,5.18 -0.95,7.17 0.14,1.9 0.49,3.51 1.02,4.67 0.55,1.43 1.36,2.52 2.41,3.25l-0.1 0.46 -60.16 -17.09 0.14 -0.42z"/>
   <path class="fil0" d="M8661.76 3526.2l37.26 14.5 37.22 -151.24 -74.48 136.74zm-87.23 57.36l139.26 -255.52c1.44,-2.67 2.28,-4.94 2.52,-6.76 0.15,-1.82 0.15,-3.25 -0.17,-4.37 -0.38,-1.37 -1.02,-2.49 -1.89,-3.33l0.25 -0.59 89.5 34.73 -0.18 0.66c-1.26,-0.03 -2.48,0.36 -3.67,1.12 -0.99,0.6 -1.97,1.61 -3.05,3.16 -1.08,1.47 -1.97,3.74 -2.73,6.68l-69.61 282.59c-0.77,2.83 -0.98,5.32 -0.77,7.39 0.24,2.03 0.63,3.67 1.12,4.9 0.59,1.54 1.47,2.73 2.48,3.67l-0.17 0.43 -58.37 -22.66 0.17 -0.46c1.2,0 2.42,-0.41 3.54,-1.26 1.05,-0.66 2.06,-1.78 3.07,-3.32 1.1,-1.54 1.97,-3.78 2.7,-6.65l9.38 -38.21 -48.34 -18.77 -18.81 34.53c-1.44,2.62 -2.25,4.87 -2.49,6.72 -0.21,1.86 -0.24,3.33 -0.04,4.52 0.28,1.4 0.85,2.55 1.76,3.37l-0.15 0.41 -58.4 -22.66 0.18 -0.42c1.36,0.04 2.83,-0.31 4.33,-1.01 1.27,-0.56 2.66,-1.51 4.2,-2.87 1.48,-1.37 2.95,-3.4 4.38,-6.02z"/>
   <path class="fil1" d="M7515.48 3926.15c-10.54,-6.09 -21.92,-11.87 -33.83,-16.91 -20.9,-8.86 -42.26,-15.82 -58.19,-20.45 -7.88,-2.31 -8.3,-2.27 -12.79,-3.43 -4.4,2.07 -4.9,2.03 -12.67,5.88 -15.69,7.81 -36.66,19.02 -57.12,32 -6.26,4 -11.37,8.59 -17.33,12.83 41.5,12.18 79.1,29.41 111.74,51.37 23.67,-22.9 50.49,-43.64 80.19,-61.29z"/>
   <path class="fil1" d="M7196.33 4040.15c86.8,13.3 166.82,40.79 234.65,81.06 9.8,-8.76 19.74,-17.36 30.29,-25.56 -50.36,-79.98 -154.63,-128.97 -275.62,-133.28 5.82,10.16 9.28,21.54 9.56,33.51l1.12 44.27z"/>
   <path class="fil1" d="M7411.08 4172.76c-83.02,-55.99 -190.38,-88.67 -306.56,-94.65 13.55,15.33 22.01,33.69 22.47,54.24l3.43 151.17 0 117.34c0,12.11 7.04,23.07 19.33,30.15l230.27 132.36c22.41,12.85 56.59,9.87 78.93,-6.97l109.84 -82.57c0.21,-4.3 0.32,-8.58 0.39,-12.82 5.01,-112.36 -51.5,-216.36 -158.1,-288.25z"/>
   <path class="fil1" d="M7708.69 4274.56c-0.04,-0.56 -0.07,-1.09 -0.04,-1.64l-0.9 -39.89 0 -0.04 -3.62 -158.17c-0.48,-19.85 6.73,-39.08 18.7,-56.54 -84.84,23.52 -163,62.22 -225.99,113.02 -7.63,6.14 -14.5,12.83 -21.68,19.3 88.07,65.62 142.1,151.97 154.88,246.94 -0.1,0.1 -0.17,0.17 -0.24,0.27 0.69,5.22 1.33,10.41 1.99,15.52 0.32,4.03 0.74,8.02 0.95,12.08 0.14,-0.14 0.24,-0.28 0.38,-0.39 0.03,0.15 0.03,0.29 0.07,0.43l55.29 -41.57c12.26,-9.24 19.27,-21.39 19.27,-33.51l0 -55.19c0.73,-6.54 1.08,-13.12 0.97,-19.71l-0.03 -0.91z"/>
   <path class="fil1" d="M7490.99 4005.71c-5.11,4.66 -9.72,9.78 -14.49,14.71 13.09,12.43 24.62,25.88 34.77,40.2 37.05,-23.43 77.25,-43.53 119.72,-60.23l-0.97 -47.86c-0.25,-9.88 1.92,-19.72 5.53,-29.18 -54.81,18.11 -104.84,46.12 -144.56,82.36z"/>
   <path class="fil2" d="M6832.93 5222.64c-42.33,28.15 -96.65,18.34 -121.05,-21.85 -24.44,-40.17 -9.88,-95.77 32.42,-123.89 42.34,-28.15 96.65,-18.35 121.09,21.85 24.41,40.16 9.88,95.77 -32.46,123.89zm80.25 -169.06c-44.08,-60.58 -131.34,-73.68 -200.07,-27.94 -72.07,47.9 -96.86,142.62 -55.26,211.08 41.6,68.45 134.15,85.16 206.28,37.22 56.66,-37.68 84.07,-104.24 73.05,-164.27l212.33 -141.18c15.97,-10.64 34.7,-15.52 52.88,-13.76l137.9 13.13c13.27,1.26 26.96,-3.39 37.5,-12.78l15.2 -14.01 -146.51 -109.08 -333.3 221.59z"/>
   <path class="fil2" d="M8115.52 5077.99c-24.44,44.48 -78.76,63.76 -121.09,43.04 -42.34,-20.74 -56.87,-73.75 -32.46,-118.22 24.44,-44.47 78.75,-63.76 121.09,-43.03 42.3,20.73 56.86,73.74 32.46,118.21zm-701.52 -231.45c-15.45,1.33 -27.91,-10.06 -27.91,-25.5 0,-15.41 12.46,-29.03 27.91,-30.36 15.4,-1.37 27.94,10.05 27.94,25.46 0,15.44 -12.54,29.03 -27.94,30.4zm700.25 56.47c-68.66,-33.61 -155.78,-5.36 -199.9,62.79l-357.67 -175.19 502.5 -461.94c6.34,-5.85 9.9,-14.15 9.59,-22.4l-0.38 -9.39c-0.18,-5.01 -5.64,-7.57 -10.02,-4.66l-625.74 415.79 43.9 43.35 -707.26 -346.49c-4.34,-2.13 -9.84,1.36 -10.02,6.4l-0.34 9.46c-0.35,8.34 3.22,16 9.59,20.73l681.35 507.18c10.54,7.53 24.23,9.8 37.54,6.2l137.86 -37.25c18.18,-4.91 36.91,-3.3 52.91,4.51l212.1 103.93c-11.17,62.04 16.2,123.95 72.97,151.75 72.13,35.3 164.68,2.43 206.28,-73.32 41.6,-75.73 16.81,-166.11 -55.26,-201.45z"/>
   <path class="fil0" d="M5661.65 7440.72c-138,69.61 -295.29,98.71 -479.3,118.64l-605.92 53.01 0 -46.01c72.82,-33.24 126.5,-106.98 126.5,-195.15l0 -1457.39c0,-88.24 -53.68,-148.75 -126.5,-173.08l0 -46.01 732.47 -64.05 0 46.01c-72.9,37.05 -126.55,106.95 -126.55,195.19l0 1507.21c655.72,-41.98 667.24,-1373.88 529.17,-1802.86 -153.41,-523.46 -556.06,-948.49 -1330.7,-899.89 -1886.8,111.42 -2086.18,2587.19 -882.06,2481.87 590.62,-51.68 851.39,-803.15 410.36,-1025.36 -149.56,-67.48 -348.98,-38.51 -475.54,114.4 -184.07,-336.72 126.56,-601.66 460.23,-569.54 828.32,65.66 736.3,1531.06 -402.66,1630.75 -1779.43,155.69 -1372.88,-2694.95 893.52,-2893.21 1027.74,-89.96 1610.66,465.02 1825.42,1128.9 245.43,730.23 23,1624.11 -548.44,1896.57z"/>
   <path class="fil0" d="M7782.45 6353.89c0,-1047.03 -813.01,-975.88 -813.01,71.08 0,1054.74 813.01,979.8 813.01,-71.08zm-1319.22 65.55c0,-1254.15 1833.12,-1414.53 1833.12,-160.37l0 103.58c0,1257.93 -1833.12,1418.3 -1833.12,160.37l0 -103.58z"/>
   <path class="fil0" d="M8752.68 7020.75c0,80.53 49.83,148.98 122.67,169.47l0 46.02 -498.49 43.62 0 -46c72.83,-33.24 126.54,-110.8 126.54,-191.31l0 -1465.09c0,-88.2 -53.71,-148.71 -126.54,-169.19l0 -46.02 667.24 -58.37 525.42 1399.93 0 -1219.63c0,-88.2 -49.9,-149.03 -122.74,-169.55l0 -46.01 494.68 -43.28 0 46.01c-72.83,33.27 -126.54,103.16 -126.54,191.37l0 1465.09c0,80.54 53.71,148.68 126.54,169.13l0 46.01 -322.11 28.22c-214.76,22.63 -398.81,-91.7 -475.53,-280.58l-391.14 -1051.13 0 1181.29z"/>
   <path class="fil0" d="M5344.32 6563.06c-5.04,-0.56 -10.09,-1.26 -15.17,-0.94 -61.06,3.92 -122.13,8.02 -183.16,12.15 -32.75,2.24 -65.45,4.51 -98.19,6.76l0.6 29.49c63.13,-7.54 126.26,-15.1 189.39,-22.69 30.78,-3.72 61.56,-7.75 92.34,-11.78 4.59,-0.59 9.15,-1.78 13.63,-3.25 2.76,-0.92 6.58,-1.82 6.23,-5.99 -0.24,-3.08 -3.26,-3.5 -5.67,-3.75z"/>
   <path class="fil0" d="M5326.71 6430.2c7.49,-1.09 21.15,-0.45 20.93,-8.79 -0.2,-8.9 -13.27,-4.77 -21,-4.38 -93.85,4.56 -187.73,11.84 -281.61,18.81l0.57 29.55c47.03,-5.71 94.05,-11.52 141.07,-17.9 46.69,-6.33 93.43,-10.46 140.04,-17.29z"/>
   <path class="fil0" d="M5332.66 6819.62c5.08,-0.7 10.12,-2.46 15.05,-4.2 1.72,-0.6 4.03,-2.34 4.45,-3.88 0.77,-3.12 -1.89,-4.42 -4.41,-4.74 -5.04,-0.59 -10.08,-1.43 -15.16,-1.08 -71.86,4.79 -143.67,9.84 -215.53,14.71 -21.5,1.47 -43.06,2.83 -64.57,4.3l0.56 29.31c67.06,-8.02 134.11,-16 201.17,-24.09 26.16,-3.15 52.28,-6.69 78.44,-10.33z"/>
   <path class="fil0" d="M5341.51 6757.47c-4.52,-0.56 -9.17,-0.73 -13.76,-0.42 -85.16,6.02 -170.39,12.32 -255.55,18.18 -6.9,0.44 -13.76,0.8 -20.63,1.22l0.53 28.64c10.19,-1.26 20.42,-2.31 30.64,-3.68 84.11,-11.03 168.25,-20.86 252.4,-31.22 2.06,-0.25 4.17,-0.39 6.13,-1.06 4.16,-1.44 10.54,-1.71 10.29,-7.49 -0.2,-4.97 -6.3,-3.68 -10.05,-4.17z"/>
   <path class="fil0" d="M5326.36 6625.36c8.34,-1.03 23.4,-2 22.83,-8.55 -0.87,-10.89 -14.67,-5.68 -23.11,-5.11 -92.41,6.09 -184.89,12.36 -277.33,18.63l0.56 28.88c36.42,-4.55 72.88,-9.1 109.29,-13.55 55.93,-6.86 111.84,-13.31 167.76,-20.3z"/>
   <path class="fil0" d="M5333.1 6075.12c-29.7,0.04 -59.45,3.89 -89.22,5.08 -68.42,2.77 -136.91,7.95 -205.41,13.69l0.6 30.75c98.15,-12.19 196.34,-24.34 294.49,-36.73 4.9,-0.6 13.48,1.12 13.34,-6.94 -0.18,-6.68 -8.65,-5.85 -13.8,-5.85z"/>
   <path class="fil0" d="M5330.47 6234.02c3.08,-0.39 6.17,-1.02 9.17,-1.86 3.05,-0.84 6.94,-2.27 7.04,-5.53 0.14,-4.56 -4.34,-4.8 -7.84,-4.87 -9.14,-0.17 -18.38,-0.56 -27.59,0.07 -87.79,6.13 -175.55,12.43 -263.29,18.67 -2.24,0.14 -4.45,0.27 -6.69,0.44l0.59 29.42c26.93,-3.39 53.93,-6.82 80.85,-10.22 69.27,-8.68 138.5,-17.37 207.76,-26.12z"/>
   <path class="fil0" d="M5334.47 6026.91c-33.69,-1.83 -67.68,3.57 -101.48,5.53 -65.12,3.85 -130.29,8.72 -195.42,13.63l0.55 30.14c96.65,-12.15 193.33,-24.5 289.94,-36.83 2.07,-0.25 4.17,-0.39 6.13,-1.03 4.27,-1.29 10.55,-1.77 10.33,-7.38 -0.14,-4.9 -6.16,-3.85 -10.05,-4.06z"/>
   <path class="fil0" d="M5329.24 6367.47c-78.54,5.46 -157.06,11.28 -235.59,16.67 -16.53,1.12 -33.06,2.13 -49.59,3.18l0.59 28.89c59.61,-7.21 119.23,-14.4 178.87,-21.64 35.41,-4.27 70.84,-8.55 106.21,-13.37 6.58,-0.92 17.89,-0.75 17.72,-8.83 -0.21,-7.42 -11.35,-5.4 -18.21,-4.9z"/>
   <path class="fil0" d="M5326.5 6123.94c-95.66,6.66 -191.4,13.42 -287.07,20.1l0.53 28.99c62.09,-7.45 124.1,-14.88 186.18,-22.37 33.34,-4.06 66.67,-8.26 99.97,-12.96 7.08,-1.02 18.91,-0.84 18.91,-9.42 0.04,-7.07 -11.58,-4.83 -18.52,-4.34z"/>
   <path class="fil0" d="M5329.75 5844.18c5.08,-0.77 13.34,-1.01 12.96,-8.29 -0.25,-5.47 -8.02,-5.02 -12.81,-4.77 -30.78,1.65 -61.6,3.57 -92.38,5.78 -67.9,4.83 -135.83,9.76 -203.7,14.67l0.53 29.27c75.91,-9.06 151.84,-18.13 227.75,-27.28 22.58,-2.73 45.14,-5.87 67.65,-9.38z"/>
   <path class="fil0" d="M5334.12 6184.14c4.35,-0.91 11.35,-0.38 11.57,-5.88 0.28,-6.41 -6.87,-5.71 -11.7,-5.57 -16.39,0.46 -32.78,0.91 -49.2,2.03 -81.48,5.77 -162.93,11.59 -244.45,17.44l0.59 30c54.18,-6.51 108.38,-13.12 162.52,-20.51 43.55,-5.92 87.29,-8.26 130.67,-17.51z"/>
   <path class="fil0" d="M5329.65 7112.73c8.72,-1.12 24.75,-1.79 23.99,-9.14 -1.23,-10.75 -15.97,-5 -25.04,-4.41 -90.13,5.92 -180.34,12.04 -270.51,18.11l0.6 29.06c8.75,-1.05 17.51,-2.11 26.26,-3.16 81.59,-10.01 163.15,-20.06 244.7,-30.46z"/>
   <path class="fil0" d="M5332.35 7000.47c-78.51,5.25 -157.05,10.99 -235.59,16.35 -13.48,0.94 -27.03,1.75 -40.55,2.63l0.56 28.39c0.21,0 0.42,-0.04 0.6,-0.07 91.84,-11.45 183.73,-22.27 275.54,-33.44 7.46,-0.91 20.17,-1.09 19.95,-8.02 -0.27,-8.79 -12.84,-6.37 -20.51,-5.84z"/>
   <path class="fil0" d="M5330.03 7049.69c-90.98,6.26 -181.92,12.68 -272.86,19.02l0.57 28.36c90.9,-11.81 181.91,-22.21 272.88,-33.3 8.37,-1.02 23.08,-1.3 22.65,-8.62 -0.59,-9.73 -14.56,-6.06 -23.24,-5.46z"/>
   <path class="fil0" d="M5324.59 6918.33c9.66,-1.26 27.41,-1.19 26.99,-9.32 -0.55,-11.21 -16.94,-4.86 -26.26,-4.52 -37.92,1.4 -75.88,3.65 -113.84,6.38 -52.38,3.75 -104.77,7.91 -157.12,11.91l0.57 28.63c28.29,-3.53 56.65,-7.17 84.98,-10.68 61.52,-7.59 123.12,-14.53 184.68,-22.4z"/>
   <path class="fil0" d="M5323.15 5929.64c-95.77,5.08 -191.64,12.19 -287.49,19.4l0.6 29.45c47.14,-5.78 94.33,-11.59 141.5,-17.37 48.75,-5.98 97.48,-11.8 146.2,-18.38 7.42,-1.01 20.97,-0.43 20.62,-9.1 -0.31,-8.23 -13.55,-4.42 -21.43,-4z"/>
   <path class="fil0" d="M5322.91 6513.79c-43.1,2.7 -86.24,6.05 -129.35,8.96 -48.91,3.33 -97.77,6.44 -146.68,9.67l0.55 29.34c94.7,-11.69 189.38,-23.32 284.06,-34.98 6.59,-0.8 13.28,-1.44 18.91,-8.05 -8.13,-7.21 -18.24,-5.5 -27.49,-4.94z"/>
   <path class="fil0" d="M5337.2 6270.23c-5.04,-0.49 -10.15,-0.7 -15.26,-0.31 -87.75,6.23 -175.53,12.81 -263.29,18.84 -5.46,0.37 -10.96,0.59 -16.43,0.97l0.57 28.72c77.95,-9.32 155.96,-18.6 233.94,-27.99 20.03,-2.41 39.99,-5.52 59.96,-8.64 4.26,-0.67 10.5,-1.65 10.43,-7.29 -0.04,-5.07 -6.14,-3.95 -9.92,-4.3z"/>
   <path class="fil0" d="M5341.96 6465.18c-6.55,-0.39 -13.21,-1.15 -19.79,-0.73 -80.12,5.5 -160.16,11.06 -240.24,16.8 -12.01,0.87 -23.96,1.79 -35.97,2.7l0.56 30.32c86.67,-10.68 173.37,-21.36 260.04,-32.15 11.76,-1.46 23.52,-3.95 35.26,-6.37 3.29,-0.66 7.95,-1.75 7.38,-6.51 -0.41,-3.36 -4.16,-3.88 -7.24,-4.06z"/>
   <path class="fil0" d="M5310.95 5978.02c-36.42,2.11 -72.88,5.57 -109.33,7.82 -54.98,3.39 -110.02,7.42 -165.04,11.51l0.6 29.98c37.08,-4.62 74.21,-9.17 111.29,-13.9 60.54,-7.67 121.05,-15.69 181.56,-23.64 5.53,-0.74 11.45,-0.63 17.09,-7.87 -11.73,-6.52 -24.2,-4.59 -36.17,-3.9z"/>
   <path class="fil0" d="M5323.22 5894.33c7.28,-0.9 19.47,-0.76 19.54,-8.69 0.07,-8.67 -11.94,-5.77 -19.12,-5.28 -80.08,5.53 -160.16,11.52 -240.24,16.99 -16.22,1.12 -32.39,2.06 -48.64,3.07l0.52 29c3.64,-0.42 7.25,-0.88 10.89,-1.33 92.37,-11.21 184.68,-22.35 277.05,-33.76z"/>
   <path class="fil0" d="M5326.5 5734.57c-39.39,-0.94 -79,5.07 -118.49,7.04 -58.66,2.91 -117.35,8.41 -176.07,12.88l0.56 28.86c92.51,-11.14 185.1,-22.13 277.61,-33.55 11.24,-1.36 23.36,-1.36 33.65,-9.8 -4.76,-6.76 -11.23,-5.29 -17.26,-5.43z"/>
   <path class="fil0" d="M5343.33 6319.47c-5.01,-0.59 -10.05,-1.4 -15.13,-1.04 -73.88,5 -147.77,10.25 -221.69,15.29 -21.11,1.44 -42.26,2.77 -63.34,4.17l0.52 29.63c69.79,-8.38 139.54,-16.75 209.29,-25.14 25.64,-3.12 51.31,-6.62 76.9,-10.2 4.55,-0.62 9.14,-2.2 13.56,-3.85 1.67,-0.62 3.88,-2.48 4.3,-4.06 0.77,-3.11 -1.85,-4.48 -4.41,-4.8z"/>
   <path class="fil0" d="M5339.7 7208.21c5.99,-0.78 12.43,-0.92 16.88,-8.23 -9.8,-6.73 -21.39,-4.53 -32.18,-4 -32.85,1.72 -65.69,4.07 -98.57,6.41 -55.26,4.03 -110.55,8.05 -165.84,12.08l0.53 28.61c23.81,-2.76 47.65,-5.57 71.43,-8.51 69.27,-8.55 138.49,-17.51 207.75,-26.36z"/>
   <path class="fil0" d="M5339.7 7256.08c5.99,-0.77 12.43,-0.91 16.88,-8.23 -9.8,-6.73 -21.39,-4.51 -32.18,-3.99 -32.85,1.71 -65.69,4.02 -98.57,6.4 -55.26,3.99 -110.55,8.02 -165.84,12.08l0.53 28.61c23.81,-2.8 47.65,-5.57 71.43,-8.51 69.27,-8.54 138.49,-17.51 207.75,-26.36z"/>
   <path class="fil0" d="M5339.7 7303.93c5.99,-0.73 12.43,-0.91 16.88,-8.23 -9.8,-6.69 -21.39,-4.51 -32.18,-3.96 -32.85,1.69 -65.69,4.03 -98.57,6.39 -55.26,4.02 -110.55,8.05 -165.84,12.11l0.53 28.6c23.81,-2.8 47.65,-5.6 71.43,-8.53 69.27,-8.55 138.49,-17.51 207.75,-26.38z"/>
   <path class="fil0" d="M5334.64 6659.96c-46.05,-0.6 -92.34,6.34 -138.53,8.79 -48.77,2.62 -97.59,6.09 -146.43,9.73l0.59 29.66c30.64,-3.85 61.31,-7.84 91.99,-11.52 64.67,-7.74 129.28,-14.98 193.85,-24.93 5.29,-0.8 11.62,-0.21 14.92,-7.08 -3.96,-5.94 -10.43,-4.58 -16.39,-4.65z"/>
   <path class="fil0" d="M5342.54 7147.16c-12.3,0.11 -24.58,0.18 -36.91,1.09 -82.18,5.92 -164.4,12.32 -246.58,17.79l0.55 29.34c45.91,-5.53 91.82,-11.27 137.73,-17.61 48.18,-6.66 96.54,-9.39 144.55,-19.08 4.93,-0.99 12.63,-0.46 12.91,-6.48 0.22,-6.06 -7.34,-5.08 -12.25,-5.05z"/>
   <path class="fil0" d="M5329 5782.7c-3.93,-0.66 -8.13,-0.28 -12.26,0 -89.29,6.4 -178.61,13.13 -267.91,19.26 -5.32,0.39 -10.65,0.56 -15.97,0.91l0.57 28.93c77.45,-9.26 154.87,-18.46 232.29,-27.74 21.05,-2.52 42.06,-5.7 63.06,-8.79 5.43,-0.81 13.87,-1.08 14.02,-7.28 0.14,-6.9 -8.69,-4.41 -13.8,-5.29z"/>
   <path class="fil0" d="M5325.61 6952.1c-84.14,5.64 -168.33,11.65 -252.5,17.72 -5.95,0.41 -11.87,0.87 -17.83,1.29l0.56 28.39c76.45,-9.1 152.92,-18.2 229.4,-27.37 17.93,-2.17 35.85,-5.11 53.79,-7.81 5.53,-0.85 11.37,-1.26 15.43,-7.81 -8.43,-6.93 -19.11,-5.08 -28.85,-4.41z"/>
   <path class="fil0" d="M5316.75 6708.99c-31.3,1.58 -62.6,3.82 -93.91,6.07 -57.39,4.17 -114.82,8.36 -172.24,12.56l0.6 28.65c94.11,-11.69 188.2,-23.33 282.33,-35.05 6.44,-0.8 13.52,-0.59 18.66,-8.65 -11.1,-6.27 -23.59,-4.16 -35.44,-3.58z"/>
   <path class="fil0" d="M5332.39 6854.96c-92.98,6.17 -185.97,12.5 -278.95,18.84l0.56 29.83c23.25,-2.66 46.51,-5.18 69.72,-8.02 69.27,-8.44 138.45,-17.58 207.68,-26.82 8.19,-1.12 22.1,-1.19 21.85,-10.61 -0.24,-9.66 -13.48,-3.71 -20.86,-3.22z"/>
   <path class="fil3" d="M7125.3 8532.23c10.93,-1.68 19.65,6.3 21.06,15.42 -0.46,9.38 -6.35,19.6 -15.73,19.18 -10.9,1.68 -19.29,-4.48 -20.98,-15.4 -1.4,-9.12 6.55,-17.79 15.65,-19.2zm452.63 -509.52c10.92,-1.69 19.57,6.3 20.98,15.41 1.71,10.92 -6.27,19.61 -15.38,21.01 -11.17,-0.14 -19.61,-6.3 -21.01,-15.42 0.14,-11.19 6.3,-19.6 15.41,-21zm-109.98 398.97l294.76 -34.24c31.23,-2.94 60.89,20.45 65.97,53.19 2.94,31.24 -20.44,60.93 -53.22,66.01l-313.22 35.19 -38.25 5.88 -245.32 28.47 -15.97 17.37c-20.83,21.85 -55.71,25.38 -79.37,4.8 -19.76,-19.33 -24.27,-48.47 -10.97,-71.01l-73.08 9.42 -0.84 -5.47c-0.14,-13.03 9.39,-23.82 22.13,-25.77l78.55 -10.26 446.73 -499.27c20.59,-23.7 55.75,-25.39 79.38,-4.79 21.86,20.86 23.54,55.99 2.98,79.65l-393.97 442.72 183.17 -20.73 -0.87 -5.47c-4.73,-30.94 18.66,-60.64 51.41,-65.69z"/>
  </g>
 </g>
</svg>
